<svg xmlns="http://www.w3.org/2000/svg" viewBox="0 0 280 150">
  <rect width="280" height="150" rx="12" fill="#1C2B3A"/>
  <line x1="140" y1="75" x2="140" y2="20" stroke="#5B8FA8" stroke-width="2"/>
  <line x1="140" y1="75" x2="140" y2="130" stroke="#5B8FA8" stroke-width="2"/>
  <line x1="140" y1="75" x2="85" y2="75" stroke="#5B8FA8" stroke-width="2"/>
  <line x1="140" y1="75" x2="195" y2="75" stroke="#5B8FA8" stroke-width="2"/>
  <line x1="140" y1="75" x2="101" y2="36" stroke="#A8BCC8" stroke-width="1.5"/>
  <line x1="140" y1="75" x2="179" y2="36" stroke="#A8BCC8" stroke-width="1.5"/>
  <line x1="140" y1="75" x2="101" y2="114" stroke="#A8BCC8" stroke-width="1.5"/>
  <line x1="140" y1="75" x2="179" y2="114" stroke="#A8BCC8" stroke-width="1.5"/>
  <line x1="140" y1="75" x2="62" y2="53" stroke="#3D5A6B" stroke-width="1"/>
  <line x1="140" y1="75" x2="218" y2="53" stroke="#3D5A6B" stroke-width="1"/>
  <line x1="140" y1="75" x2="62" y2="97" stroke="#3D5A6B" stroke-width="1"/>
  <line x1="140" y1="75" x2="218" y2="97" stroke="#3D5A6B" stroke-width="1"/>
  <circle cx="140" cy="75" r="14" fill="#3D5A6B"/>
  <circle cx="140" cy="75" r="8" fill="#5B8FA8"/>
  <circle cx="140" cy="75" r="3" fill="#E8EEF2"/>
  <circle cx="140" cy="20" r="3" fill="#E8EEF2"/>
  <circle cx="140" cy="130" r="3" fill="#E8EEF2"/>
  <circle cx="85" cy="75" r="3" fill="#E8EEF2"/>
  <circle cx="195" cy="75" r="3" fill="#E8EEF2"/>
  <circle cx="101" cy="36" r="2.5" fill="#A8BCC8"/>
  <circle cx="179" cy="36" r="2.5" fill="#A8BCC8"/>
  <circle cx="101" cy="114" r="2.5" fill="#A8BCC8"/>
  <circle cx="179" cy="114" r="2.5" fill="#A8BCC8"/>
</svg>
