<svg xmlns="http://www.w3.org/2000/svg" viewBox="0 0 280 140">
  <rect width="280" height="140" rx="12" fill="#1C2B3A"/>
  <line x1="40" y1="20" x2="260" y2="20" stroke="#3D5A6B" stroke-width="0.5"/>
  <line x1="40" y1="50" x2="260" y2="50" stroke="#3D5A6B" stroke-width="0.5"/>
  <line x1="40" y1="80" x2="260" y2="80" stroke="#3D5A6B" stroke-width="0.5"/>
  <line x1="40" y1="110" x2="260" y2="110" stroke="#3D5A6B" stroke-width="0.5"/>
  <line x1="60" y1="16" x2="60" y2="130" stroke="#3D5A6B" stroke-width="0.5"/>
  <line x1="120" y1="16" x2="120" y2="130" stroke="#3D5A6B" stroke-width="0.5"/>
  <line x1="180" y1="16" x2="180" y2="130" stroke="#3D5A6B" stroke-width="0.5"/>
  <line x1="240" y1="16" x2="240" y2="130" stroke="#3D5A6B" stroke-width="0.5"/>
  <circle cx="60" cy="50" r="7" fill="#5B8FA8"/>
  <circle cx="120" cy="80" r="7" fill="#5B8FA8"/>
  <circle cx="180" cy="50" r="7" fill="#5B8FA8"/>
  <circle cx="240" cy="20" r="5" fill="#A8BCC8"/>
  <circle cx="60" cy="110" r="5" fill="#A8BCC8"/>
  <circle cx="180" cy="110" r="5" fill="#A8BCC8"/>
  <line x1="60" y1="50" x2="120" y2="80" stroke="#5B8FA8" stroke-width="1.5"/>
  <line x1="120" y1="80" x2="180" y2="50" stroke="#5B8FA8" stroke-width="1.5"/>
  <line x1="180" y1="50" x2="240" y2="20" stroke="#A8BCC8" stroke-width="1"/>
  <line x1="60" y1="50" x2="60" y2="110" stroke="#A8BCC8" stroke-width="1"/>
  <line x1="180" y1="50" x2="180" y2="110" stroke="#A8BCC8" stroke-width="1"/>
</svg>
